<svg width="7" height="9" viewBox="0 0 7 9" fill="none" xmlns="http://www.w3.org/2000/svg">
<path d="M5.33553 0.0359707C5.40696 0.0359707 5.48731 0.0716858 5.54088 0.125257L5.98731 0.571686C6.04088 0.625257 6.0766 0.705614 6.0766 0.777042C6.0766 0.848471 6.04088 0.928828 5.98731 0.9824L2.47839 4.49133L5.98731 8.00026C6.04088 8.05383 6.0766 8.13419 6.0766 8.20561C6.0766 8.28597 6.04088 8.3574 5.98731 8.41097L5.54088 8.8574C5.48731 8.91097 5.40696 8.94669 5.33553 8.94669C5.2641 8.94669 5.18374 8.91097 5.13017 8.8574L0.969456 4.69669C0.915885 4.64311 0.88017 4.56276 0.88017 4.49133C0.88017 4.4199 0.915885 4.33954 0.969456 4.28597L5.13017 0.125257C5.18374 0.0716858 5.2641 0.0359707 5.33553 0.0359707Z" fill="white"/>
</svg>
