<svg width="7" height="9" viewBox="0 0 7 9" fill="none" xmlns="http://www.w3.org/2000/svg">
<path d="M1.62126 8.9467C1.54983 8.9467 1.46947 8.91098 1.4159 8.85741L0.969473 8.41098C0.915902 8.35741 0.880188 8.27705 0.880188 8.20562C0.880188 8.1342 0.915902 8.05384 0.969473 8.00027L4.4784 4.49134L0.969473 0.982409C0.915902 0.928837 0.880188 0.84848 0.880188 0.777052C0.880188 0.696695 0.915902 0.625266 0.969473 0.571695L1.4159 0.125266C1.46947 0.0716946 1.54983 0.0359802 1.62126 0.0359802C1.69269 0.0359802 1.77305 0.0716946 1.82662 0.125266L5.98733 4.28598C6.0409 4.33955 6.07662 4.41991 6.07662 4.49134C6.07662 4.56277 6.0409 4.64312 5.98733 4.69669L1.82662 8.85741C1.77305 8.91098 1.69269 8.9467 1.62126 8.9467Z" fill="white"/>
</svg>
